<?xml version="1.0" encoding="utf-8"?>
<!-- Generator: Adobe Illustrator 24.1.0, SVG Export Plug-In . SVG Version: 6.00 Build 0)  -->
<svg version="1.1" id="Layer_1" xmlns="http://www.w3.org/2000/svg" xmlns:xlink="http://www.w3.org/1999/xlink" x="0px" y="0px"
	 viewBox="0 0 400 400" style="enable-background:new 0 0 400 400;" xml:space="preserve">
<style type="text/css">
	.st0{fill:#FFFFFF;stroke:#000000;stroke-miterlimit:10;}
	.st1{fill:#9192C1;stroke:#000000;stroke-miterlimit:10;}
	.st2{fill:#30231B;stroke:#000000;stroke-miterlimit:10;}
	.st3{fill:#CFC0AD;stroke:#000000;stroke-miterlimit:10;}
	.st4{fill:none;}
	.st5{fill:#30231B;}
	.st6{font-family:'Avenir-MediumOblique';}
	.st7{font-size:60px;}
</style>
<path class="st0" d="M48.86,182.28"/>
<circle class="st1" cx="53.6" cy="189.94" r="14.01"/>
<circle class="st2" cx="53.76" cy="189.98" r="9.62"/>
<circle class="st1" cx="83.04" cy="172.76" r="14.23"/>
<circle class="st2" cx="83.21" cy="172.8" r="9.77"/>
<circle class="st1" cx="111.84" cy="189.85" r="14.16"/>
<circle class="st2" cx="112" cy="189.89" r="9.72"/>
<circle class="st1" cx="83.23" cy="243.1" r="14.01"/>
<circle class="st2" cx="83.39" cy="243.14" r="9.62"/>
<circle class="st1" cx="111.77" cy="223.66" r="14.08"/>
<circle class="st2" cx="111.93" cy="223.71" r="9.67"/>
<circle class="st1" cx="53.66" cy="223.74" r="14.01"/>
<circle class="st2" cx="53.82" cy="223.78" r="9.62"/>
<circle class="st3" cx="89.68" cy="194.62" r="4.03"/>
<circle class="st3" cx="76.84" cy="194.72" r="4.03"/>
<circle class="st3" cx="95.58" cy="206.73" r="4.03"/>
<circle class="st3" cx="89.81" cy="219.7" r="4.03"/>
<circle class="st3" cx="76.84" cy="219.7" r="4.03"/>
<circle class="st3" cx="70.6" cy="207.21" r="4.03"/>
<rect x="143.27" y="176.4" class="st4" width="220.73" height="60.6"/>
<text transform="matrix(1 0 0 1 143.2662 221.7593)" class="st5 st6 st7">CRITTR</text>
</svg>
